<svg width="40" height="40" viewBox="0 0 40 40" fill="none" xmlns="http://www.w3.org/2000/svg">
  <g clip-path="url(#clip0_6_231)">
    <mask id="mask0_6_231" style="mask-type:luminance" maskUnits="userSpaceOnUse" x="0" y="0" width="40" height="40">
      <path d="M40 0H0V40H40V0Z" fill="white" />
    </mask>
    <g mask="url(#mask0_6_231)">
      <path
        d="M5.90396 30.0848C4.97353 29.5495 4.4 28.5579 4.4 27.4844V13.3855C4.4 12.6168 5.23112 12.1355 5.89778 12.5182L18.1552 19.5532C19.0872 20.0881 19.6619 21.0806 19.6619 22.1551V36.271C19.6619 37.0401 18.8299 37.5213 18.1632 37.1378L5.90396 30.0848Z"
        fill="#754BBB" />
      <path
        d="M22.3419 37.1166C21.6752 37.5076 20.8359 37.0269 20.8359 36.254V22.1573C20.8359 21.0929 21.3999 20.1082 22.318 19.5696L34.2983 12.5419C34.9649 12.1509 35.8042 12.6316 35.8042 13.4045V27.5013C35.8042 28.5657 35.2402 29.5504 34.3222 30.0889L22.3419 37.1166Z"
        fill="#6637B3" />
      <path
        d="M21.7223 2.83072C20.8077 2.31506 19.6901 2.31506 18.7755 2.83072L6.51131 9.74545C5.83732 10.1255 5.83172 11.0941 6.50127 11.4819L18.7454 18.5731C19.6754 19.1118 20.8224 19.1118 21.7524 18.5731L33.9965 11.4819C34.666 11.0941 34.6604 10.1255 33.9864 9.74545L21.7223 2.83072Z"
        fill="#8C69C6" />
    </g>
  </g>
  <defs>
    <clipPath id="clip0_6_231">
      <rect width="40" height="40" fill="white" />
    </clipPath>
  </defs>
</svg>