<svg viewBox="0 0 28 28" fill="none" xmlns="http://www.w3.org/2000/svg">
  <path
    d="M4.32553 7.89505C3.89149 7.461 3.89149 6.75958 4.32553 6.32553C4.75958 5.89149 5.46447 5.89149 5.89852 6.32553L12.5655 12.9925C12.9995 13.4265 12.9995 14.1314 12.5655 14.5655L5.89852 21.2324C5.46447 21.6665 4.75958 21.6665 4.32553 21.2324C3.89149 20.7984 3.89149 20.0935 4.32553 19.6594L10.2043 13.7772L4.32553 7.89505ZM12.8884 19.333H22.8888C23.5035 19.333 24 19.8296 24 20.4442C24 21.0588 23.5035 21.5554 22.8888 21.5554H12.8884C12.2738 21.5554 11.7772 21.0588 11.7772 20.4442C11.7772 19.8296 12.2738 19.333 12.8884 19.333Z"
    fill="#C7C8C8" />
</svg>